# Blender v2.80 (sub 75) OBJ File: 'steve.blend'
# www.blender.org
mtllib steve.mtl
o Cube_Cube.001
v -0.800000 4.800000 0.800000
v -0.800000 6.400000 0.800000
v -0.800000 4.800000 -0.800000
v -0.800000 6.400000 -0.800000
v 0.800000 4.800000 0.800000
v 0.800000 6.400000 0.800000
v 0.800000 4.800000 -0.800000
v 0.800000 6.400000 -0.800000
vt 0.375447 0.750851
vt 0.375447 0.875619
vt 0.250785 0.875619
vt 0.250785 0.750851
vt 0.249297 0.750926
vt 0.249297 0.874865
vt 0.125026 0.874865
vt 0.125026 0.750926
vt 0.125398 0.750306
vt 0.125398 0.876194
vt -0.001113 0.876194
vt -0.001113 0.750306
vt 0.499943 0.749460
vt 0.499943 0.876023
vt 0.374703 0.876023
vt 0.374703 0.749460
vt 0.250326 0.874489
vt 0.374420 0.874489
vt 0.374420 0.999887
vt 0.250326 0.999887
vt 0.126541 0.874975
vt 0.250798 0.874975
vt 0.250798 1.001305
vt 0.126541 1.001305
vn -1.0000 0.0000 0.0000
vn 0.0000 0.0000 -1.0000
vn 1.0000 0.0000 0.0000
vn 0.0000 0.0000 1.0000
vn 0.0000 -1.0000 0.0000
vn 0.0000 1.0000 0.0000
usemtl Material.001
s off
f 1/1/1 2/2/1 4/3/1 3/4/1
f 3/5/2 4/6/2 8/7/2 7/8/2
f 7/9/3 8/10/3 6/11/3 5/12/3
f 5/13/4 6/14/4 2/15/4 1/16/4
f 3/17/5 7/18/5 5/19/5 1/20/5
f 8/21/6 4/22/6 2/23/6 6/24/6
o Cube.001_Cube.002
v -0.800000 2.400000 0.400000
v -0.800000 4.800000 0.400000
v -0.800000 2.400000 -0.400000
v -0.800000 4.800000 -0.400000
v 0.800000 2.400000 0.400000
v 0.800000 4.800000 0.400000
v 0.800000 2.400000 -0.400000
v 0.800000 4.800000 -0.400000
vt 0.499558 0.500127
vt 0.499558 0.688477
vt 0.438244 0.688477
vt 0.438244 0.500128
vt 0.438201 0.500516
vt 0.438201 0.687691
vt 0.311531 0.687691
vt 0.311531 0.500516
vt 0.312140 0.500274
vt 0.312140 0.689076
vt 0.249557 0.689076
vt 0.249557 0.500274
vt 0.624821 0.499566
vt 0.624821 0.687267
vt 0.500117 0.687267
vt 0.500117 0.499566
vt 0.437806 0.688364
vt 0.562999 0.688364
vt 0.562999 0.749889
vt 0.437806 0.749889
vt 0.321173 0.388708
vt 0.442014 0.388708
vt 0.442014 0.504360
vt 0.321173 0.504360
vn -1.0000 0.0000 0.0000
vn 0.0000 0.0000 -1.0000
vn 1.0000 0.0000 0.0000
vn 0.0000 0.0000 1.0000
vn 0.0000 -1.0000 0.0000
vn 0.0000 1.0000 0.0000
usemtl Material.001
s off
f 9/25/7 10/26/7 12/27/7 11/28/7
f 11/29/8 12/30/8 16/31/8 15/32/8
f 15/33/9 16/34/9 14/35/9 13/36/9
f 13/37/10 14/38/10 10/39/10 9/40/10
f 11/41/11 15/42/11 13/43/11 9/44/11
f 16/45/12 12/46/12 10/47/12 14/48/12
o Cube.002_Cube.003
v 0.000000 0.000000 0.400000
v 0.000000 2.400000 0.400000
v 0.000000 0.000000 -0.400000
v 0.000000 2.400000 -0.400000
v 0.800000 0.000000 0.400000
v 0.800000 2.400000 0.400000
v 0.800000 0.000000 -0.400000
v 0.800000 2.400000 -0.400000
vt 0.186179 0.500261
vt 0.186179 0.687983
vt 0.126065 0.687983
vt 0.126065 0.500261
vt 0.123242 0.500302
vt 0.123242 0.687670
vt 0.063915 0.687670
vt 0.063915 0.500302
vt 0.062782 0.500332
vt 0.062782 0.687064
vt 0.001085 0.687065
vt 0.001085 0.500332
vt 0.186264 0.689086
vt 0.186264 0.750237
vt 0.125722 0.750237
vt 0.125722 0.689086
vt 0.124230 0.688920
vt 0.124230 0.749594
vt 0.063343 0.749594
vt 0.063343 0.688920
vt 0.250111 0.499741
vt 0.250111 0.688987
vt 0.186754 0.688987
vt 0.186754 0.499741
vn -1.0000 0.0000 0.0000
vn 0.0000 0.0000 -1.0000
vn 1.0000 0.0000 0.0000
vn 0.0000 -1.0000 0.0000
vn 0.0000 1.0000 0.0000
vn 0.0000 0.0000 1.0000
usemtl Material.001
s off
f 17/49/13 18/50/13 20/51/13 19/52/13
f 19/53/14 20/54/14 24/55/14 23/56/14
f 23/57/15 24/58/15 22/59/15 21/60/15
f 19/61/16 23/62/16 21/63/16 17/64/16
f 24/65/17 20/66/17 18/67/17 22/68/17
f 21/69/18 22/70/18 18/71/18 17/72/18
o Cube.003_Cube.008
v -0.800000 -0.000000 0.400000
v -0.800000 2.400000 0.400000
v -0.800000 -0.000000 -0.400000
v -0.800000 2.400000 -0.400000
v 0.000000 -0.000000 0.400000
v 0.000000 2.400000 0.400000
v 0.000000 -0.000000 -0.400000
v 0.000000 2.400000 -0.400000
vt 0.186795 0.500261
vt 0.186795 0.688598
vt 0.126680 0.688598
vt 0.126680 0.500261
vt 0.123242 0.500663
vt 0.123242 0.688646
vt 0.063915 0.688646
vt 0.063915 0.500663
vt 0.061551 0.500332
vt 0.061551 0.687680
vt 0.002316 0.687680
vt 0.002316 0.500332
vt 0.186264 0.688471
vt 0.186264 0.750852
vt 0.125722 0.750852
vt 0.125722 0.688471
vt 0.124230 0.688305
vt 0.124230 0.748978
vt 0.063343 0.748978
vt 0.063343 0.688305
vt 0.250111 0.500356
vt 0.250111 0.689602
vt 0.186754 0.689602
vt 0.186754 0.500356
vn -1.0000 0.0000 0.0000
vn 0.0000 0.0000 -1.0000
vn 1.0000 0.0000 0.0000
vn 0.0000 -1.0000 0.0000
vn 0.0000 1.0000 0.0000
vn 0.0000 0.0000 1.0000
usemtl Material.001
s off
f 25/73/19 26/74/19 28/75/19 27/76/19
f 27/77/20 28/78/20 32/79/20 31/80/20
f 31/81/21 32/82/21 30/83/21 29/84/21
f 27/85/22 31/86/22 29/87/22 25/88/22
f 32/89/23 28/90/23 26/91/23 30/92/23
f 29/93/24 30/94/24 26/95/24 25/96/24
o Cube.004_Cube.005
v 0.800000 2.401783 -0.408803
v 0.800000 4.801760 -0.398223
v 1.600000 2.401783 -0.408804
v 1.600000 4.801760 -0.398223
v 0.800001 2.398256 0.391189
v 0.800000 4.798233 0.401770
v 1.600001 2.398256 0.391189
v 1.600000 4.798234 0.401769
vt 0.875502 0.502192
vt 0.875502 0.687775
vt 0.811687 0.687776
vt 0.811687 0.502193
vt 0.750484 0.501753
vt 0.750484 0.687390
vt 0.811508 0.687390
vt 0.811508 0.501753
vt 0.749635 0.501364
vt 0.749635 0.688638
vt 0.688451 0.688638
vt 0.688451 0.501364
vt 0.750682 0.751051
vt 0.750682 0.688500
vt 0.811132 0.688500
vt 0.811132 0.751051
vt 0.687525 0.750776
vt 0.687525 0.686554
vt 0.749780 0.686554
vt 0.749780 0.750776
vt 0.687643 0.501218
vt 0.687563 0.687953
vt 0.626360 0.687953
vt 0.626441 0.501218
vn -0.0000 0.0044 -1.0000
vn 1.0000 0.0000 -0.0000
vn 0.0000 -0.0044 1.0000
vn -0.0000 -1.0000 -0.0044
vn -0.0000 1.0000 0.0044
vn -1.0000 -0.0000 0.0000
usemtl Material.001
s off
f 33/97/25 34/98/25 36/99/25 35/100/25
f 35/101/26 36/102/26 40/103/26 39/104/26
f 39/105/27 40/106/27 38/107/27 37/108/27
f 35/109/28 39/110/28 37/111/28 33/112/28
f 40/113/29 36/114/29 34/115/29 38/116/29
f 37/117/30 38/118/30 34/119/30 33/120/30
o Cube.005_Cube.007
v -0.795891 2.400000 0.400000
v -0.795891 4.800000 0.400000
v -1.595891 2.400000 0.400000
v -1.595891 4.800000 0.400000
v -0.795892 2.400000 -0.400000
v -0.795892 4.800000 -0.400000
v -1.595892 2.400000 -0.400000
v -1.595892 4.800000 -0.400000
vt 0.872627 0.500682
vt 0.872627 0.685933
vt 0.812315 0.685934
vt 0.812315 0.500683
vt 0.749033 0.502518
vt 0.749033 0.687617
vt 0.809214 0.687617
vt 0.809214 0.502518
vt 0.749245 0.500783
vt 0.749245 0.686653
vt 0.689050 0.686653
vt 0.689050 0.500783
vt 0.750730 0.750063
vt 0.750730 0.689182
vt 0.811180 0.689182
vt 0.811181 0.750063
vt 0.688115 0.750481
vt 0.688115 0.688519
vt 0.749780 0.688519
vt 0.749780 0.750481
vt 0.687753 0.502103
vt 0.687674 0.687443
vt 0.627461 0.687443
vt 0.627540 0.502103
vn 0.0000 0.0000 1.0000
vn -1.0000 0.0000 0.0000
vn -0.0000 0.0000 -1.0000
vn 0.0000 -1.0000 -0.0000
vn 0.0000 1.0000 0.0000
vn 1.0000 0.0000 -0.0000
usemtl Material.001
s off
f 41/121/31 42/122/31 44/123/31 43/124/31
f 43/125/32 44/126/32 48/127/32 47/128/32
f 47/129/33 48/130/33 46/131/33 45/132/33
f 43/133/34 47/134/34 45/135/34 41/136/34
f 48/137/35 44/138/35 42/139/35 46/140/35
f 45/141/36 46/142/36 42/143/36 41/144/36
